Coordinates
version=1
nRows=16
nColumns=36
inDegrees=yes

Units are S.I. units (second, meters, Newtons, ...)
If the header above contains a line with 'inDegrees', this indicates whether rotational values are in degrees (yes) or radians (no).

endheader
time	pelvis_tilt	pelvis_list	pelvis_rotation	pelvis_tx	pelvis_ty	pelvis_tz	hip_flexion_r	hip_adduction_r	hip_rotation_r	knee_angle_r	knee_angle_r_beta	ankle_angle_r	subtalar_angle_r	mtp_angle_r	hip_flexion_l	hip_adduction_l	hip_rotation_l	knee_angle_l	knee_angle_l_beta	ankle_angle_l	subtalar_angle_l	mtp_angle_l	lumbar_extension	lumbar_bending	lumbar_rotation	arm_flex_r	arm_add_r	arm_rot_r	elbow_flex_r	pro_sup_r	arm_flex_l	arm_add_l	arm_rot_l	elbow_flex_l	pro_sup_l
      0.00000000	      3.50963040	      1.27181235	     -2.46043404	     -0.92327022	      1.31447462	     -0.08205731	     -6.51196346	     -4.11861362	      6.22604579	      0.35437694	      0.00618504	      8.17213930	     -7.66075526	     -5.42472533	     -7.22843972	     -0.96053822	      2.80811954	      0.48393428	      0.00844625	      9.17973702	     -4.83176660	     -5.42472533	    -16.47999896	     -1.06986564	      0.51206402	     10.10928195	     -6.95492448	     26.46002742	     24.36733631	     70.50055274	      8.89415953	    -11.19040301	     22.50803072	     28.99001731	     66.94279125
      0.00416670	      3.51171724	      1.08044005	     -2.31274692	     -0.92560112	      1.31424793	     -0.08231652	     -6.59535712	     -3.64615749	      7.71358773	      0.27086348	      0.00472746	      9.89280799	     -7.30926582	     -5.74477810	     -7.16632803	     -0.98424411	      4.84666178	      0.36563365	      0.00638151	      8.81942571	     -6.09279512	     -5.74477810	    -16.62998828	     -0.83536257	      0.86090419	     10.50052119	     -6.91055731	     25.88823440	     24.36049620	     70.99508789	      9.38829793	    -11.02177299	     21.93477369	     29.96144039	     66.95416341
      0.00833330	      2.68584609	      1.31877056	     -2.60349335	     -0.92600541	      1.31281466	     -0.08101275	     -5.56421516	     -3.74231610	      7.91515611	      0.22552059	      0.00393608	     10.11019088	     -8.28069158	     -6.47995887	     -6.21516781	     -0.79735949	      5.10690634	      0.34795427	      0.00607295	      8.95623170	     -6.29238652	     -6.47995887	    -16.34351607	     -1.51376016	      1.48008753	     10.33887930	     -6.33432955	     22.44256884	     24.87944559	     78.35011294	     10.03217069	    -11.00179885	     20.84726491	     29.81020406	     71.17461655
      0.01250000	      3.28594435	      1.36869527	     -2.65116361	     -0.92779680	      1.31128498	     -0.08051926	     -6.04218316	     -3.85922299	      8.45560711	      0.20322464	      0.00354694	     10.40016661	     -8.71608573	     -6.68587348	     -6.81533635	     -0.74387923	      5.65184781	      0.27898434	      0.00486920	      9.35755394	     -6.51938024	     -6.68587348	    -17.55300350	     -1.89734672	      1.67665884	     10.52305965	     -6.16178373	     22.11121291	     25.43083385	     77.23192963	     10.61536149	    -11.08646761	     20.42377907	     29.98410842	     70.58696582
      0.01666670	      3.16103523	      1.36296111	     -2.71920063	     -0.92915178	      1.31097418	     -0.08077525	     -5.84442595	     -3.87139991	      8.84903137	      0.19569682	      0.00341555	     10.38117891	     -9.22596319	     -6.78975488	     -6.66092073	     -0.75170649	      6.32344159	      0.25060533	      0.00437389	      9.53041881	     -7.08655164	     -6.78975488	    -17.63944373	     -1.97394471	      1.80532501	     10.51740285	     -5.94194871	     21.46829506	     25.68180774	     76.88470638	     10.77972619	    -10.88441260	     19.75056962	     29.80839512	     70.45182076
      0.02083330	      3.34364854	      1.39121979	     -2.80831244	     -0.92851736	      1.31319498	     -0.08058452	     -6.03226081	     -3.94284007	      9.23445365	      0.19063468	      0.00332720	     10.14422473	     -9.78660226	     -7.10378358	     -6.86264189	     -0.69102216	      6.87058198	      0.23791265	      0.00415236	      9.55379290	     -7.68798072	     -7.10378358	    -18.02948226	     -2.08403228	      1.94864292	     10.08290032	     -5.38649519	     16.41892562	     26.46519266	     88.32502474	     10.61560082	    -10.45097482	     15.98140186	     30.05243311	     80.01648190
      0.02500000	      3.42153814	      1.40859816	     -2.91407002	     -0.92862468	      1.31297623	     -0.08076070	     -6.13186819	     -4.02125439	      9.51272745	      0.18683914	      0.00326096	      9.93247659	    -10.34189965	     -7.20865842	     -6.98321690	     -0.64933933	      7.26498007	      0.22915719	      0.00399955	      9.62851197	     -8.12196756	     -7.20865842	    -18.09265343	     -2.17773575	      2.07975685	      9.90719579	     -5.27237030	     16.42591789	     26.88764186	     85.98690337	     10.48329696	    -10.34842402	     15.12371711	     30.31659080	     78.46714746
      0.02916670	      3.42835135	      1.46963500	     -3.09808003	     -0.92882246	      1.31235795	     -0.08051781	     -6.13590301	     -4.15333891	      9.74912097	      0.18445074	      0.00321927	      9.59747195	    -10.66048653	     -7.24837261	     -7.02339826	     -0.54310947	      7.33141764	      0.22671654	      0.00395695	      9.72302849	     -8.20651136	     -7.24837261	    -17.93556292	     -2.23600096	      2.30524003	      9.85226771	     -5.16432871	     16.24082157	     26.70969749	     84.58462397	     10.47048347	    -10.14888314	     14.47004088	     30.09487385	     77.52465117
      0.03333330	      3.41387488	      1.49494204	     -3.14731432	     -0.92794831	      1.31227465	     -0.08070252	     -6.13560255	     -4.21907053	      9.84483916	      0.18092453	      0.00315773	      9.37348313	    -10.83467945	     -7.32323796	     -7.04464006	     -0.49710048	      8.01146683	      0.22668426	      0.00395639	      9.43127427	     -9.22863375	     -7.32323796	    -17.87021339	     -2.21754933	      2.03009524	      9.83079295	     -5.02968139	     15.21893430	     26.90696679	     91.03427735	      9.91947037	     -9.94791754	     11.39314218	     30.52941812	     85.33338593
      0.03750000	      3.46011576	      1.49261442	     -3.33328277	     -0.92863670	      1.31340312	     -0.08002551	     -6.16645413	     -4.23908641	      9.96544716	      0.17633333	      0.00307760	      9.13663710	    -11.06966746	     -7.34287828	     -7.14003240	     -0.47823484	      7.96836195	      0.22767216	      0.00397363	      9.34090319	     -9.15767234	     -7.34287828	    -17.81511181	     -2.27824994	      2.36760890	      9.69985458	     -5.02162821	     15.22518522	     26.98587378	     89.58515423	      9.87767378	     -9.86627452	     11.35978000	     30.50588055	     84.37362987
      0.04166670	      3.42754445	      1.48389985	     -3.40645387	     -0.92872665	      1.31145355	     -0.07965218	     -6.11436088	     -4.21326226	     10.34767691	      0.17388203	      0.00303481	      8.79845124	    -11.64658834	     -7.41351428	     -7.13343043	     -0.49491626	      8.24876142	      0.23263225	      0.00406020	      9.13468324	     -9.65149533	     -7.41351428	    -17.70587116	     -2.28888925	      2.53580776	      9.61120599	     -5.15360410	     15.52295030	     27.20276695	     91.43476776	      9.83960379	     -9.92774121	     11.24485612	     30.55433670	     88.96851633
      0.04583330	      3.34829330	      1.50421351	     -3.43597677	     -0.92765143	      1.31152780	     -0.07886629	     -6.04439560	     -4.19985426	     10.52136734	      0.17025703	      0.00297155	      8.59599354	    -11.88347182	     -7.44938538	     -7.06710739	     -0.50808148	      8.41087781	      0.23196961	      0.00404863	      8.89658889	    -10.01261890	     -7.44938538	    -17.52785648	     -2.30148903	      2.59374299	      9.45790290	     -5.09269037	     15.08891175	     27.36127299	     92.00804193	      9.65800465	     -9.89009266	     10.67598084	     30.59134254	     90.99363200
      0.05000000	      3.20909574	      1.51456576	     -3.40018159	     -0.92676008	      1.31183925	     -0.07989132	     -5.91143962	     -4.17406953	     10.60700214	      0.16712572	      0.00291689	      8.54450420	    -11.93245600	     -7.47554854	     -6.95395232	     -0.51692381	      8.61814047	      0.23228284	      0.00405410	      8.71608860	    -10.41867857	     -7.47554854	    -17.25239747	     -2.29680600	      2.62461442	      9.28831969	     -5.11367349	     15.10333988	     27.38957468	     91.96869908	      9.54696246	     -9.88787628	     10.80303028	     30.51599908	     91.50819109
      0.05416670	      3.22520570	      1.45990565	     -3.42075133	     -0.92674009	      1.31153428	     -0.07969074	     -5.96546749	     -4.10280802	     10.81939106	      0.16611232	      0.00289921	      8.26859280	    -12.35437747	     -7.47826308	     -7.04670529	     -0.60144223	      8.61556155	      0.23129450	      0.00403685	      8.53581780	    -10.78506069	     -7.47826308	    -17.18099028	     -2.22071853	      2.66636929	      9.21072713	     -5.18330982	     15.39404463	     27.51913378	     91.02158989	      9.45866518	     -9.91258939	     11.24005701	     30.42117533	     90.67380371
      0.05833330	      3.19083337	      1.43653738	     -3.41065842	     -0.92583251	      1.31239775	     -0.07985872	     -5.97132956	     -4.06970965	     10.89126491	      0.16542220	      0.00288716	      8.05655284	    -12.56958951	     -7.48061901	     -7.09562128	     -0.65773053	      8.69460111	      0.23103292	      0.00403229	      8.17616811	    -11.27229195	     -7.48061901	    -17.01276768	     -2.16038365	      2.73104450	      9.08236301	     -5.27471467	     15.73837392	     27.55716288	     89.78787252	      9.38587156	     -9.90582516	     11.83243379	     30.23988550	     89.54253501
      0.06250000	      3.17854869	      1.40821602	     -3.34778170	     -0.92628686	      1.31439498	     -0.07952060	     -5.95960820	     -4.00999491	     10.96960378	      0.16209454	      0.00282908	      8.05651678	    -12.52630399	     -7.48834439	     -7.10841368	     -0.72502613	      8.76283969	      0.22876538	      0.00399271	      7.97774074	    -11.47878930	     -7.48834439	    -16.91411355	     -2.07819473	      2.71412851	      9.00028256	     -5.40215482	     16.58497532	     27.64448295	     85.84739924	      9.35289439	     -9.97998901	     12.91293439	     30.11747773	     85.60747609
